<?xml version="1.0" standalone="no"?>
<!DOCTYPE svg PUBLIC "-//W3C//DTD SVG 20010904//EN"
 "http://www.w3.org/TR/2001/REC-SVG-20010904/DTD/svg10.dtd">
<svg version="1.0" xmlns="http://www.w3.org/2000/svg"
 width="700.000000pt" height="700.000000pt" viewBox="0 0 700.000000 700.000000"
 preserveAspectRatio="xMidYMid meet">
<metadata>
Created by potrace 1.14, written by Peter Selinger 2001-2017
</metadata>
<g transform="translate(0.000000,700.000000) scale(0.100000,-0.100000)"
fill="#000000" stroke="none">
<path d="M3435 6993 c-88 -17 -172 -41 -236 -68 -350 -147 -628 -538 -805
-1134 -19 -63 -36 -116 -38 -119 -3 -2 -59 15 -126 37 -66 22 -167 53 -223 67
-117 30 -110 28 -202 43 -38 6 -88 13 -110 17 -80 13 -325 11 -413 -3 -251
-40 -439 -132 -601 -293 -192 -194 -301 -436 -304 -679 -3 -195 33 -336 139
-556 92 -191 232 -386 437 -608 55 -59 98 -109 96 -111 -2 -2 -38 -32 -79 -66
-169 -143 -350 -343 -456 -505 -156 -239 -225 -448 -224 -682 0 -266 111 -536
300 -724 147 -147 319 -231 561 -275 103 -19 367 -24 504 -10 105 10 326 49
445 79 l95 23 28 -130 c45 -214 65 -284 114 -415 223 -596 599 -889 1123 -877
221 6 388 66 562 205 257 203 446 537 604 1064 9 31 21 57 26 57 5 0 54 -16
109 -35 148 -51 307 -92 464 -119 116 -20 344 -26 465 -12 291 33 551 178 721
401 319 419 282 881 -115 1440 -28 39 -52 72 -56 75 -3 3 -25 30 -50 60 -52
64 -91 107 -177 199 -35 36 -63 68 -62 71 0 3 19 20 42 38 159 128 362 345
475 510 95 138 195 354 216 464 2 13 7 34 10 48 11 41 16 100 16 197 1 160
-33 299 -111 456 -66 134 -99 179 -199 277 -159 157 -360 244 -645 279 -69 9
-366 7 -415 -3 -14 -2 -52 -8 -85 -12 -84 -10 -83 -10 -155 -24 -36 -6 -76
-14 -90 -17 -14 -2 -67 -15 -117 -27 l-93 -24 -5 32 c-3 17 -7 42 -9 56 -38
228 -136 526 -229 700 -185 344 -433 547 -753 616 -73 15 -318 27 -369 17z
m340 -443 c316 -81 551 -426 666 -980 22 -107 27 -99 -91 -143 -58 -21 -124
-47 -147 -58 -24 -10 -46 -19 -51 -19 -5 0 -32 -11 -60 -25 -29 -14 -54 -25
-57 -25 -2 0 -30 -12 -62 -26 -32 -15 -83 -37 -113 -51 -111 -50 -328 -159
-450 -227 -69 -38 -138 -76 -153 -84 -26 -13 -27 -15 -13 -31 9 -10 16 -20 16
-23 0 -8 100 -178 105 -178 2 0 29 15 62 33 93 52 279 141 424 202 121 51 185
76 374 145 93 34 418 125 545 154 149 33 271 53 445 71 61 7 335 7 380 0 251
-38 385 -91 504 -200 108 -99 166 -212 199 -389 10 -50 -1 -173 -22 -256 -24
-96 -115 -272 -199 -383 -77 -103 -229 -264 -334 -354 l-60 -52 -54 46 c-240
205 -710 538 -951 673 -32 17 -61 36 -64 41 -3 5 -13 9 -23 9 -13 0 -37 -33
-79 -105 l-60 -106 26 -16 c437 -272 885 -644 1177 -978 39 -44 72 -82 76 -85
14 -13 122 -152 166 -215 134 -191 247 -423 267 -549 4 -21 8 -42 11 -46 3 -5
7 -50 10 -102 12 -238 -89 -434 -292 -569 -32 -22 -62 -39 -68 -39 -5 0 -22
-6 -37 -14 -36 -19 -139 -44 -223 -54 -182 -21 -408 9 -675 90 -74 22 -143 42
-152 45 -9 3 -15 13 -13 22 2 10 6 42 10 72 4 30 8 56 10 59 2 3 6 26 9 50 4
25 9 56 11 70 2 14 7 45 10 70 3 25 8 56 10 70 4 22 11 89 20 185 5 46 16 174
20 230 5 76 17 360 18 445 l1 75 -127 3 c-98 2 -127 0 -127 -10 -5 -186 -22
-401 -45 -578 -16 -126 -74 -446 -89 -498 -3 -9 -7 -28 -10 -42 -22 -124 -131
-477 -197 -637 -177 -428 -408 -713 -649 -798 -244 -87 -515 -15 -697 184
-148 162 -275 449 -342 771 -25 119 -26 113 21 128 42 13 313 120 373 147 17
7 77 34 135 60 224 100 651 322 665 345 6 10 -113 220 -124 220 -4 0 -11 -4
-17 -9 -34 -34 -553 -271 -689 -316 -22 -7 -84 -29 -137 -49 -267 -98 -670
-195 -918 -221 -36 -4 -74 -9 -85 -11 -30 -6 -312 -6 -378 1 -32 3 -98 14
-146 25 -275 61 -447 205 -532 443 -31 87 -35 263 -8 365 33 131 138 324 242
450 81 96 219 237 308 312 l46 39 44 -37 c24 -20 46 -39 49 -42 11 -12 194
-153 310 -240 145 -108 414 -287 582 -389 l118 -70 64 107 c57 96 62 108 47
120 -9 7 -77 52 -151 101 -126 81 -390 275 -471 345 -19 17 -49 42 -65 55
-133 110 -395 364 -515 501 -270 306 -455 624 -500 860 -24 125 -16 290 18
370 3 8 7 20 9 27 4 24 63 118 101 164 130 156 308 233 563 243 81 3 278 -14
330 -29 8 -2 27 -7 43 -10 15 -3 39 -7 55 -10 110 -23 328 -96 325 -111 -1 -5
-4 -29 -8 -54 -3 -25 -8 -52 -10 -60 -2 -8 -6 -33 -9 -55 -4 -22 -8 -51 -11
-65 -2 -14 -7 -47 -10 -75 -4 -27 -8 -59 -9 -70 -2 -11 -6 -49 -10 -85 -4 -36
-9 -82 -12 -102 -2 -20 -6 -67 -9 -105 -3 -37 -8 -88 -10 -113 -5 -67 -17
-325 -19 -445 l-2 -105 128 0 c96 0 128 3 128 13 8 265 36 549 74 767 3 14 7
42 10 62 5 29 30 151 71 340 30 137 139 481 186 585 10 23 19 45 19 48 0 3 29
65 65 136 181 366 408 589 650 639 76 15 208 11 290 -10z"/>
<path d="M3390 3979 c-25 -5 -72 -22 -106 -39 -251 -123 -346 -428 -213 -680
31 -57 120 -148 181 -184 147 -85 349 -86 494 -1 270 158 326 522 117 756
-114 126 -297 183 -473 148z"/>
</g>
</svg>
